<?xml version="1.0" encoding="utf-8"?>
<!-- Generator: Adobe Illustrator 22.1.0, SVG Export Plug-In . SVG Version: 6.00 Build 0)  -->
<svg version="1.1" id="Layer_1" xmlns="http://www.w3.org/2000/svg" xmlns:xlink="http://www.w3.org/1999/xlink" x="0px" y="0px"
	 viewBox="0 0 476.5 256.5" style="enable-background:new 0 0 476.5 256.5;" xml:space="preserve">
<style type="text/css">
	.st0{fill:url(#SVGID_1_);}
	.st1{fill:url(#SVGID_2_);}
	.st2{fill:url(#SVGID_3_);}
	.st3{fill:url(#SVGID_4_);}
	.st4{fill:url(#SVGID_5_);}
	.st5{fill:none;stroke:#686867;}
	.st6{fill:#67686E;}
</style>
<g>
	<g>
		
			<linearGradient id="SVGID_1_" gradientUnits="userSpaceOnUse" x1="129.4649" y1="158.1279" x2="129.4649" y2="40.5362" gradientTransform="matrix(1 0 -8.750000e-02 1 -20.6584 0)">
			<stop  offset="0" style="stop-color:#EE8F00"/>
			<stop  offset="0" style="stop-color:#F7BE00"/>
			<stop  offset="0" style="stop-color:#F29400"/>
			<stop  offset="1" style="stop-color:#FFED00"/>
		</linearGradient>
		<path class="st0" d="M125.9,55.5c0,0,5.3,11-8,50.8c-13.6,41-21.4,44.6-25.3,48.2c-2.5,2.4-9.1,5.5-11.9,2.4
			c-2.8-3.1-7.7-8.3-7.7-8.3s7.7,10.2,16-1.4c6.4-8.9,13.6-25.3,17.5-41.6c3.4-14.4,9.8-56.3-1-59.9c-7.9-2.6-22.6,12.9-25.6,14.2
			c-3,1.3,23.8-19.3,23.8-19.3l13.5,0.7l7.7,3.1L125.9,55.5z"/>
		
			<linearGradient id="SVGID_2_" gradientUnits="userSpaceOnUse" x1="184.0418" y1="131.8732" x2="184.0418" y2="26.0406" gradientTransform="matrix(1 0 -8.750000e-02 1 -20.6584 0)">
			<stop  offset="0" style="stop-color:#EE8F00"/>
			<stop  offset="0" style="stop-color:#F7BE00"/>
			<stop  offset="0" style="stop-color:#F29400"/>
			<stop  offset="1" style="stop-color:#FFED00"/>
		</linearGradient>
		<path class="st1" d="M179.3,39.5c0,0,6,10-6.3,45.7c-11.3,32.6-21.3,41.2-23.6,43.4c-2.3,2.1-8.2,4.9-10.7,2.1
			c-2.5-2.8-2.9-7.7-2.9-7.7s1.7,9.4,9.2-1c4.6-6.4,13.1-24.5,16.2-37.5c3.1-13,9.5-45.9-1.1-49.2c-7.1-2.2-19.4,7-22.1,8.1
			c-2.7,1.2,21.4-17.4,21.4-17.4l12.9,0.3l5,3.4L179.3,39.5z"/>
		<g>
			<g>
				
					<linearGradient id="SVGID_3_" gradientUnits="userSpaceOnUse" x1="44.0426" y1="129.9128" x2="150.9836" y2="129.9128" gradientTransform="matrix(1 0 -8.750000e-02 1 -20.6584 0)">
					<stop  offset="0" style="stop-color:#E2001A"/>
					<stop  offset="0.3333" style="stop-color:#E95D0F"/>
					<stop  offset="1" style="stop-color:#EC7404"/>
				</linearGradient>
				<path class="st2" d="M126,47.5c1.2-4.7-3-20.7-15.9-20.7c-27.4,0-55.5,37.8-75.2,81.9C9.3,166.1,3,233,3,233l12.5,0
					c0,0,7.6-65.7,32.6-116.9s53.9-74.3,65.6-73.9c4.7,0.1,11.7,6.3,11.8,13.2L126,47.5z"/>
			</g>
		</g>
		<g>
			<g>
				
					<linearGradient id="SVGID_4_" gradientUnits="userSpaceOnUse" x1="102.1617" y1="89.0714" x2="204.2737" y2="89.0714" gradientTransform="matrix(1 0 -8.750000e-02 1 -20.6584 0)">
					<stop  offset="0" style="stop-color:#E2001A"/>
					<stop  offset="0.3333" style="stop-color:#E95D0F"/>
					<stop  offset="1" style="stop-color:#EC7404"/>
				</linearGradient>
				<path class="st3" d="M179.8,42.8l0.1-0.3c0.3-10.2-0.1-25.5-11.9-27c-19.4-2.5-48.5,22.4-79.7,77.1
					c-31.3,54.7-17.7,70.1-7.6,70.2c8.6,0.1,18.3-14.7,18.3-14.7c-1,1.3-6.5,8.4-13.1,8.8c-6.8,0.4-1.6-29.6,17.5-62.7
					c23.2-40.4,56.4-66.9,67.1-64.6C176.3,30.7,175.7,31.1,179.8,42.8z"/>
			</g>
		</g>
		<g>
			<g>
				
					<linearGradient id="SVGID_5_" gradientUnits="userSpaceOnUse" x1="159.6126" y1="69.1099" x2="239.6489" y2="69.1099" gradientTransform="matrix(1 0 -8.750000e-02 1 -20.6584 0)">
					<stop  offset="0" style="stop-color:#E2001A"/>
					<stop  offset="0.3333" style="stop-color:#E95D0F"/>
					<stop  offset="1" style="stop-color:#EC7404"/>
				</linearGradient>
				<path class="st4" d="M218.7,2.9c-19.3,6.7-49.4,25.3-73.2,69.2c-27,49.8-15.9,63.1-6.7,63.2c8.3,0.1,17.2-14.3,17.2-14.3
					s-5.1,8.4-12.5,8.9c-8.4,0.6,0.1-26.8,16.8-56.5c18.4-32.9,35.8-44.6,57.1-55.6L218.7,2.9z"/>
			</g>
		</g>
		<path class="st5" d="M48.5,38.1"/>
	</g>
	<g>
		<path class="st6" d="M136.8,232.6h-11.8v-45.9h-0.2c-6.5,16.4-13.2,31.2-19.8,45.9h-6.4c-6.3-14.7-12.7-29.5-18.8-45.9h-0.2v45.9
			h-9.5v-58.8h14.6c6,14.4,15.8,37.5,18.1,45h0.2c2.8-7.9,13.4-30.6,20.1-45h13.8V232.6z"/>
		<path class="st6" d="M155.7,212.6c-0.3,7.9,5.3,13.8,12.3,13.8c4.1,0,8.5-1.4,11.3-3.4l3.2,5.9c-5.7,3.4-11.7,4.7-16.5,4.7
			c-12.7,0-22.2-9-22.2-22.8c0-12.9,9.4-21.2,21.4-21.2c13.1,0,18.6,10.5,17.7,23H155.7z M172.4,206.5c0.4-6.4-1.8-10.8-7.4-10.8
			c-6.4,0-9.2,5.1-9.2,10.8H172.4z"/>
		<path class="st6" d="M203.6,190.6h11v5.7h-11v20.7c0,6.9,2.1,9.8,5.8,9.8c2.4,0,3.9-0.7,5.4-1.4l1.9,5.5c-3.3,1.8-7.3,2.7-11,2.7
			c-9.2,0-13.3-4.9-13.3-13.4v-23.9h-5.9v-5.7h5.9v-10.1l11.2-2.5V190.6z"/>
		<path class="st6" d="M232.5,198h0.2l2.3-3.3c1.3-1.8,3.8-5.1,7.2-5.1c2.5,0,5.2,1.3,7.6,3.8l-4.2,7.7c-1.8-0.9-3-1.4-5.3-1.4
			c-3.9,0-7.6,3.1-7.6,12.2v20.7h-11.2v-42h11.1V198z"/>
		<path class="st6" d="M247.7,211.1c0-13.6,10.8-21.5,22-21.5c11.3,0,22.1,7.9,22.1,21.5c0,13-8.9,22.5-22.1,22.5
			C256.6,233.6,247.7,224.1,247.7,211.1z M279.9,211.1c0-7-2.4-15.3-10.2-15.3c-7.6,0-10.2,8.3-10.2,15.3c0,7.4,2.2,16.3,10.2,16.3
			C277.8,227.4,279.9,218.5,279.9,211.1z"/>
		<path class="st6" d="M308.6,196.4h0.2c2.9-4.3,8.4-6.8,13.4-6.8c13.2,0,18.6,11.8,18.6,21.1c0,11.1-7.6,22.9-19.6,22.9
			c-5.1,0-9.5-2.5-12.6-6.2v26.2h-11.2v-63h11.2V196.4z M308.6,212.1c0,8.8,4.3,14.8,10.3,14.8c7.5,0,10-8.7,10-16.1
			c0-7.2-3.2-14.4-9.6-14.4C312.3,196.3,308.6,202.4,308.6,212.1z"/>
		<path class="st6" d="M345.9,211.1c0-13.6,10.8-21.5,22-21.5c11.3,0,22.1,7.9,22.1,21.5c0,13-8.9,22.5-22.1,22.5
			C354.8,233.6,345.9,224.1,345.9,211.1z M378.1,211.1c0-7-2.4-15.3-10.2-15.3c-7.6,0-10.2,8.3-10.2,15.3c0,7.4,2.2,16.3,10.2,16.3
			C376,227.4,378.1,218.5,378.1,211.1z"/>
		<path class="st6" d="M397.3,232.6v-61.7h11.2v61.7H397.3z"/>
		<path class="st6" d="M417.2,178c0-3.2,2.7-6.5,6.5-6.5c3.9,0,6.9,3.2,6.9,6.5c0,3.6-2.6,7.1-6.7,7.1
			C419.9,185,417.2,181.6,417.2,178z M429.4,190.6v42h-11.2v-42H429.4z"/>
		<path class="st6" d="M458.2,228.5c-3.1,2.4-6.9,5-10.8,5c-6.6,0-12-5-12-12.8c0-8,5.8-12.5,15.5-15.3l9.9-2.9
			c-0.6-3.9-4-6.3-7.6-6.3c-4.8,0-8.1,1.8-11.1,4.3l-3.6-5.3c5.2-4.3,10.3-5.7,16.1-5.7c7.7,0,17.2,2.5,17.2,15.6v17.1
			c0,3.4,0.4,7.3,1.8,10.2h-11.8c-0.8-1.4-1.1-3.9-1.1-6.1L458.2,228.5z M454.6,210.2c-5.5,1.7-8.2,4.9-8.2,9.7c0,3.7,2.4,6.2,5,6.2
			c4.5,0,10.2-5.5,9.4-17.9L454.6,210.2z"/>
	</g>
</g>
</svg>
